# xmcd
#
# Track frame offsets:
#	150
#	15232
#	31669
#	43401
#	59583
#	75255
#	88280
#	104448
#	125225
#	141834
#	160889
#	171661
#	186282
#	200614
#	218312
#	232757
#
# Disc length: 3281 seconds
#
# Revision: 0
# Processed by: cddbd v1.5.2PL0 Copyright (c) Steve Scherf et al.
# Submitted via: audiograbber 1.83.01
#
DISCID=da0ccf10
DTITLE=Chartbusters Country 500 Vol. 1 - Unknown
DYEAR=2007
DGENRE=Karaoke
TTITLE0=Steve Wariner - Lynda
TTITLE1=Reba McEntire - One promise too late
TTITLE2=Vern Gosdin - Set them up Joe
TTITLE3=Reba McEntire - Whoevers in New England
TTITLE4=Billy Joe Royal - Tell it like it is
TTITLE5=Clint Black - Killing Time
TTITLE6=Tanya Tucker - Love me like you used to
TTITLE7=Garth Brooks - Shameless
TTITLE8=Keith Whitley - Im no stranger to the rain
TTITLE9=K T Oslin - I will always come back
TTITLE10=Ricky Van Shelton - From a Jack to a King
TTITLE11=Travis Tritt - Country Club
TTITLE12=Kathy Mattea - Eighteen wheels and a dozen roses
TTITLE13=Kentucky Headhunters - Walk softly on this heart of mine
TTITLE14=Alan Jackson - Chasing that Neon Rainbow
TTITLE15=Tanya Tucker - Strong enough to bend
EXTD=
EXTT0=
EXTT1=
EXTT2=
EXTT3=
EXTT4=
EXTT5=
EXTT6=
EXTT7=
EXTT8=
EXTT9=
EXTT10=
EXTT11=
EXTT12=
EXTT13=
EXTT14=
EXTT15=
PLAYORDER=
